<svg width="1366" height="1095" viewBox="0 0 1366 1095" fill="none" xmlns="http://www.w3.org/2000/svg">
<path d="M-114.942 870.262L-115.3 870.611C-114.942 870.262 -114.944 870.26 -114.947 870.257L-114.963 870.24L-115.026 870.175C-115.083 870.117 -115.167 870.03 -115.279 869.914C-115.502 869.683 -115.834 869.336 -116.27 868.877C-117.143 867.958 -118.43 866.59 -120.089 864.791C-123.406 861.192 -128.209 855.872 -134.146 848.987C-146.022 835.217 -162.437 815.188 -180.592 790.158C-216.905 740.095 -260.167 670.041 -287.992 590.054C-315.817 510.067 -328.197 420.175 -302.787 330.414C-277.379 240.661 -214.171 150.974 -90.7012 71.4185C32.7443 -8.12149 127.217 -11.8457 206.605 20.6274C283.261 51.9829 345.923 117.106 407.065 180.651C409.296 182.969 411.524 185.284 413.751 187.596C476.979 253.241 539.085 315.834 613.845 335.635C688.679 355.456 776.04 332.381 889.715 227.138C1116.89 16.8094 1261.19 -10.3754 1363.59 20.8875C1414.83 36.528 1455.64 66.8133 1491.16 96.2672C1497.68 101.669 1504.02 107.046 1510.21 112.299C1520.9 121.358 1531.15 130.05 1541.11 137.869C1556.86 150.227 1571.94 160.45 1586.99 166.558C1616.82 178.665 1646.85 209.064 1674.74 251.166C1702.61 293.252 1728.3 346.967 1749.48 405.605C1791.84 522.89 1816.12 659.78 1803.78 762.58C1779.12 968.084 1531.73 1185.84 1219.52 1052.9C1162.52 1028.62 1114.99 1006.53 1073.03 987.021C1057.48 979.792 1042.69 972.919 1028.47 966.421C975.884 942.395 931.038 923.516 883.933 910.878C789.702 885.596 686.495 885.304 494.215 918.559C301.939 951.813 180.063 970.944 91.0252 966.153C46.5219 963.759 10.2437 955.387 -22.5066 939.824C-55.2586 924.26 -84.5094 901.49 -114.942 870.262L-114.942 870.262Z" fill="url(#paint0_linear_1_1082)" stroke="black"/>
<defs>
<linearGradient id="paint0_linear_1_1082" x1="719.697" y1="852.533" x2="703.365" y2="100.542" gradientUnits="userSpaceOnUse">
<stop stop-color="#079FCF"/>
<stop offset="0.708333" stop-color="#121627"/>
</linearGradient>
</defs>
</svg>
