<svg width="208" height="151" viewBox="0 0 208 151" fill="none" xmlns="http://www.w3.org/2000/svg">
<path d="M197 0.0750732H11C4.92487 0.0750732 0 4.99994 0 11.0751V139.075C0 145.15 4.92487 150.075 11 150.075H197C203.075 150.075 208 145.15 208 139.075V11.0751C208 4.99994 203.075 0.0750732 197 0.0750732Z" fill="url(#paint0_linear_1_1283)"/>
<path d="M197 2.07507H11C6.02944 2.07507 2 6.10451 2 11.0751V139.075C2 144.046 6.02944 148.075 11 148.075H197C201.971 148.075 206 144.046 206 139.075V11.0751C206 6.10451 201.971 2.07507 197 2.07507Z" stroke="#F9D849" stroke-width="4"/>
<path d="M197 1.07507H11C5.47715 1.07507 1 5.55223 1 11.0751V139.075C1 144.598 5.47715 149.075 11 149.075H197C202.523 149.075 207 144.598 207 139.075V11.0751C207 5.55223 202.523 1.07507 197 1.07507Z" stroke="#F9D849" stroke-width="2"/>
<path d="M20.336 128.315C20.184 128.035 19.964 127.823 19.676 127.679C19.396 127.527 19.064 127.451 18.68 127.451C18.016 127.451 17.484 127.671 17.084 128.111C16.684 128.543 16.484 129.123 16.484 129.851C16.484 130.627 16.692 131.235 17.108 131.675C17.532 132.107 18.112 132.323 18.848 132.323C19.352 132.323 19.776 132.195 20.12 131.939C20.472 131.683 20.728 131.315 20.888 130.835H18.284V129.323H22.748V131.231C22.596 131.743 22.336 132.219 21.968 132.659C21.608 133.099 21.148 133.455 20.588 133.727C20.028 133.999 19.396 134.135 18.692 134.135C17.86 134.135 17.116 133.955 16.46 133.595C15.812 133.227 15.304 132.719 14.936 132.071C14.576 131.423 14.396 130.683 14.396 129.851C14.396 129.019 14.576 128.279 14.936 127.631C15.304 126.975 15.812 126.467 16.46 126.107C17.108 125.739 17.848 125.555 18.68 125.555C19.688 125.555 20.536 125.799 21.224 126.287C21.92 126.775 22.38 127.451 22.604 128.315H20.336ZM23.4766 130.715C23.4766 130.027 23.6046 129.423 23.8606 128.903C24.1246 128.383 24.4806 127.983 24.9286 127.703C25.3766 127.423 25.8766 127.283 26.4286 127.283C26.9006 127.283 27.3126 127.379 27.6646 127.571C28.0246 127.763 28.3006 128.015 28.4926 128.327V127.379H30.5446V134.075H28.4926V133.127C28.2926 133.439 28.0126 133.691 27.6526 133.883C27.3006 134.075 26.8886 134.171 26.4166 134.171C25.8726 134.171 25.3766 134.031 24.9286 133.751C24.4806 133.463 24.1246 133.059 23.8606 132.539C23.6046 132.011 23.4766 131.403 23.4766 130.715ZM28.4926 130.727C28.4926 130.215 28.3486 129.811 28.0606 129.515C27.7806 129.219 27.4366 129.071 27.0286 129.071C26.6206 129.071 26.2726 129.219 25.9846 129.515C25.7046 129.803 25.5646 130.203 25.5646 130.715C25.5646 131.227 25.7046 131.635 25.9846 131.939C26.2726 132.235 26.6206 132.383 27.0286 132.383C27.4366 132.383 27.7806 132.235 28.0606 131.939C28.3486 131.643 28.4926 131.239 28.4926 130.727ZM40.5732 127.307C41.4052 127.307 42.0652 127.559 42.5532 128.063C43.0492 128.567 43.2972 129.267 43.2972 130.163V134.075H41.2572V130.439C41.2572 130.007 41.1412 129.675 40.9092 129.443C40.6852 129.203 40.3732 129.083 39.9732 129.083C39.5732 129.083 39.2572 129.203 39.0252 129.443C38.8012 129.675 38.6892 130.007 38.6892 130.439V134.075H36.6492V130.439C36.6492 130.007 36.5332 129.675 36.3012 129.443C36.0772 129.203 35.7652 129.083 35.3652 129.083C34.9652 129.083 34.6492 129.203 34.4172 129.443C34.1932 129.675 34.0812 130.007 34.0812 130.439V134.075H32.0292V127.379H34.0812V128.219C34.2892 127.939 34.5612 127.719 34.8972 127.559C35.2332 127.391 35.6132 127.307 36.0372 127.307C36.5412 127.307 36.9892 127.415 37.3812 127.631C37.7812 127.847 38.0932 128.155 38.3172 128.555C38.5492 128.187 38.8652 127.887 39.2652 127.655C39.6652 127.423 40.1012 127.307 40.5732 127.307ZM51.0443 130.619C51.0443 130.811 51.0323 131.011 51.0083 131.219H46.3643C46.3963 131.635 46.5283 131.955 46.7603 132.179C47.0003 132.395 47.2923 132.503 47.6363 132.503C48.1483 132.503 48.5043 132.287 48.7043 131.855H50.8883C50.7763 132.295 50.5723 132.691 50.2763 133.043C49.9883 133.395 49.6243 133.671 49.1843 133.871C48.7443 134.071 48.2523 134.171 47.7083 134.171C47.0523 134.171 46.4683 134.031 45.9563 133.751C45.4443 133.471 45.0443 133.071 44.7563 132.551C44.4683 132.031 44.3243 131.423 44.3243 130.727C44.3243 130.031 44.4643 129.423 44.7443 128.903C45.0323 128.383 45.4323 127.983 45.9443 127.703C46.4563 127.423 47.0443 127.283 47.7083 127.283C48.3563 127.283 48.9323 127.419 49.4363 127.691C49.9403 127.963 50.3323 128.351 50.6123 128.855C50.9003 129.359 51.0443 129.947 51.0443 130.619ZM48.9443 130.079C48.9443 129.727 48.8243 129.447 48.5843 129.239C48.3443 129.031 48.0443 128.927 47.6843 128.927C47.3403 128.927 47.0483 129.027 46.8083 129.227C46.5763 129.427 46.4323 129.711 46.3763 130.079H48.9443ZM62.2058 134.075H60.1538L56.7218 128.879V134.075H54.6698V125.651H56.7218L60.1538 130.871V125.651H62.2058V134.075ZM63.2852 130.715C63.2852 130.027 63.4132 129.423 63.6692 128.903C63.9332 128.383 64.2892 127.983 64.7372 127.703C65.1852 127.423 65.6852 127.283 66.2372 127.283C66.7092 127.283 67.1212 127.379 67.4732 127.571C67.8332 127.763 68.1092 128.015 68.3012 128.327V127.379H70.3532V134.075H68.3012V133.127C68.1012 133.439 67.8212 133.691 67.4612 133.883C67.1092 134.075 66.6972 134.171 66.2252 134.171C65.6812 134.171 65.1852 134.031 64.7372 133.751C64.2892 133.463 63.9332 133.059 63.6692 132.539C63.4132 132.011 63.2852 131.403 63.2852 130.715ZM68.3012 130.727C68.3012 130.215 68.1572 129.811 67.8692 129.515C67.5892 129.219 67.2452 129.071 66.8372 129.071C66.4292 129.071 66.0812 129.219 65.7932 129.515C65.5132 129.803 65.3732 130.203 65.3732 130.715C65.3732 131.227 65.5132 131.635 65.7932 131.939C66.0812 132.235 66.4292 132.383 66.8372 132.383C67.2452 132.383 67.5892 132.235 67.8692 131.939C68.1572 131.643 68.3012 131.239 68.3012 130.727ZM80.3818 127.307C81.2138 127.307 81.8738 127.559 82.3618 128.063C82.8578 128.567 83.1058 129.267 83.1058 130.163V134.075H81.0658V130.439C81.0658 130.007 80.9498 129.675 80.7178 129.443C80.4938 129.203 80.1818 129.083 79.7818 129.083C79.3818 129.083 79.0658 129.203 78.8338 129.443C78.6098 129.675 78.4978 130.007 78.4978 130.439V134.075H76.4578V130.439C76.4578 130.007 76.3418 129.675 76.1098 129.443C75.8858 129.203 75.5738 129.083 75.1738 129.083C74.7738 129.083 74.4578 129.203 74.2258 129.443C74.0018 129.675 73.8898 130.007 73.8898 130.439V134.075H71.8378V127.379H73.8898V128.219C74.0978 127.939 74.3698 127.719 74.7058 127.559C75.0418 127.391 75.4218 127.307 75.8458 127.307C76.3498 127.307 76.7978 127.415 77.1898 127.631C77.5898 127.847 77.9018 128.155 78.1258 128.555C78.3578 128.187 78.6738 127.887 79.0738 127.655C79.4738 127.423 79.9098 127.307 80.3818 127.307ZM90.8529 130.619C90.8529 130.811 90.8409 131.011 90.8169 131.219H86.1729C86.2049 131.635 86.3369 131.955 86.5689 132.179C86.8089 132.395 87.1009 132.503 87.4449 132.503C87.9569 132.503 88.3129 132.287 88.5129 131.855H90.6969C90.5849 132.295 90.3809 132.691 90.0849 133.043C89.7969 133.395 89.4329 133.671 88.9929 133.871C88.5529 134.071 88.0609 134.171 87.5169 134.171C86.8609 134.171 86.2769 134.031 85.7649 133.751C85.2529 133.471 84.8529 133.071 84.5649 132.551C84.2769 132.031 84.1329 131.423 84.1329 130.727C84.1329 130.031 84.2729 129.423 84.5529 128.903C84.8409 128.383 85.2409 127.983 85.7529 127.703C86.2649 127.423 86.8529 127.283 87.5169 127.283C88.1649 127.283 88.7409 127.419 89.2449 127.691C89.7489 127.963 90.1409 128.351 90.4209 128.855C90.7089 129.359 90.8529 129.947 90.8529 130.619ZM88.7529 130.079C88.7529 129.727 88.6329 129.447 88.3929 129.239C88.1529 129.031 87.8529 128.927 87.4929 128.927C87.1489 128.927 86.8569 129.027 86.6169 129.227C86.3849 129.427 86.2409 129.711 86.1849 130.079H88.7529Z" fill="white"/>
<path d="M177.517 129.151V128.899C177.534 128.824 177.547 128.748 177.555 128.671C177.577 128.111 177.71 127.561 177.945 127.053C178.313 126.159 178.939 125.396 179.743 124.859C180.547 124.323 181.493 124.038 182.459 124.041C183.274 124.004 184.085 124.176 184.815 124.54C185.545 124.905 186.17 125.45 186.631 126.123C186.668 126.173 186.707 126.223 186.753 126.28C186.799 126.221 186.83 126.18 186.853 126.146C187.564 125.129 188.629 124.413 189.839 124.137C191.049 123.861 192.319 124.045 193.401 124.653C194.483 125.261 195.3 126.25 195.693 127.428C196.086 128.605 196.027 129.887 195.528 131.023C194.91 132.33 194.05 133.508 192.993 134.495C191.16 136.252 189.115 137.773 186.905 139.023C186.86 139.056 186.806 139.073 186.75 139.073C186.694 139.073 186.64 139.056 186.595 139.023C185.246 138.234 183.95 137.357 182.717 136.397C181.346 135.367 180.115 134.163 179.055 132.814C178.299 131.89 177.79 130.789 177.578 129.614C177.556 129.459 177.537 129.305 177.517 129.151Z" stroke="white"/>
<defs>
<linearGradient id="paint0_linear_1_1283" x1="104" y1="0.0750732" x2="104" y2="150.075" gradientUnits="userSpaceOnUse">
<stop stop-opacity="0.569"/>
<stop offset="1" stop-opacity="0.839"/>
</linearGradient>
</defs>
</svg>
