<svg xmlns="http://www.w3.org/2000/svg" width="25.706" height="25.706" viewBox="0 0 25.706 25.706"><g transform="translate(569.294 -596.897)"><path d="M-69.364-312.6a2.755,2.755,0,0,1,2.755,2.755,2.755,2.755,0,0,1-2.755,2.755,2.755,2.755,0,0,1-2.755-2.755,2.755,2.755,0,0,1,2.755-2.755Zm0,1.285a1.469,1.469,0,0,0-1.469,1.469,1.469,1.469,0,0,0,1.469,1.469,1.469,1.469,0,0,0,1.469-1.469,1.469,1.469,0,0,0-1.469-1.469Zm-4.091,6.466c.021-.01,7.3-3.512,6.779,1.475a27.039,27.039,0,0,1-1,4.8c-.218.822-.072.707,1.508.709a.641.641,0,0,1,.489,1.054h0c-3.28,3.881-8.212,1.833-6.631-2.677a19.237,19.237,0,0,0,.963-3.706c-.036-.4-1.122-.444-1.829-.436a.641.641,0,0,1-.281-1.219Zm5.5,1.344c.16-1.518-1.429-1.386-2.849-.981,1.013.608.772,1.689.481,2.852-.216.864-.538,1.882-.779,2.568-.972,2.771,1.288,3.781,3.338,2.424-1.732-.3-1.329-1.615-.973-2.946a22.363,22.363,0,0,0,.782-3.917Z" transform="translate(-486.769 913.171)" fill="#111527"/><circle cx="12.853" cy="12.853" r="12.853" transform="translate(-569.294 596.897)" fill="#2b3350" opacity="0.106"/></g></svg>