<svg xmlns="http://www.w3.org/2000/svg" width="25.706" height="25.706" viewBox="0 0 25.706 25.706"><g transform="translate(925.294 -553.748)"><circle cx="12.853" cy="12.853" r="12.853" transform="translate(-925.294 553.748)" fill="#ffd800"/><g transform="translate(-919.053 560.48)"><path d="M293.459,280.127h-.641v-2.377a.828.828,0,0,0-.828-.828h-1.553l-.416-1.145a.53.53,0,0,0-.5-.35.537.537,0,0,0-.181.032l-1.064.389-.181-.5a.528.528,0,0,0-.678-.318l-5.174,1.891h-1.419a.828.828,0,0,0-.828.828v7.744a.828.828,0,0,0,.828.828H291.99a.828.828,0,0,0,.828-.828v-2.377h.641a.214.214,0,0,0,.214-.214v-2.564A.214.214,0,0,0,293.459,280.127Zm-5.034-3.878,1.065-.389a.1.1,0,0,1,.034-.006.1.1,0,0,1,.1.068l.362,1h-3.4l1.44-.527Zm-.858-.816a.1.1,0,0,1,.13.062l.181.5-2.539.928h-1.846Zm4.824,10.061a.4.4,0,0,1-.4.4H280.828a.4.4,0,0,1-.4-.4v-7.744a.4.4,0,0,1,.4-.4H291.99a.4.4,0,0,1,.4.4v2.377h-1.5a1.5,1.5,0,1,0,0,2.991h1.5Zm.855-2.8H290.9a1.068,1.068,0,0,1,0-2.136h2.35Z" transform="translate(-280 -275)" fill="#111527" stroke="#111527" stroke-width="0.5"/><path d="M760.748,550a.748.748,0,1,0,.748.748A.749.749,0,0,0,760.748,550Zm0,1.068a.32.32,0,1,1,.32-.32A.321.321,0,0,1,760.748,551.068Z" transform="translate(-749.745 -544.125)" fill="#111527" stroke="#111527" stroke-width="0.5"/></g></g></svg>