<svg xmlns="http://www.w3.org/2000/svg" width="25.706" height="25.706" viewBox="0 0 25.706 25.706"><g transform="translate(569.294 -336.39)"><path d="M12.853,0A12.853,12.853,0,1,1,0,12.853,12.853,12.853,0,0,1,12.853,0Z" transform="translate(-569.294 336.39)" fill="#d0d1d4"/><g transform="translate(-563.222 341.899)"><g transform="translate(-380.482 54.622)" fill="none"><path d="M386.907-54.622h.545c.173.031.349.051.519.094a3.351,3.351,0,0,1,1.876,5.3c-.023.031-.066.054-.055.1a3.422,3.422,0,0,1,3.8,1.921,3.319,3.319,0,0,1-.885,3.9,3.4,3.4,0,0,1-4.476-.2c-.169-.169,0,1.585,0,1.585a4.4,4.4,0,0,0,.282.659c.161.3.335.6.5.9a.261.261,0,0,1-.242.421q-1.577,0-3.154,0a.261.261,0,0,1-.242-.422c.117-.213-.092.135.6-.594.484-.75.422-.555.466-1.252a6.8,6.8,0,0,0,0-1.3c-.025.015-.362.129-.388.151a3.226,3.226,0,0,1-3.427.6,3.211,3.211,0,0,1-2.091-2.625c-.027-.164-.037-.33-.055-.5v-.057a.99.99,0,0,0,.023-.125,3.1,3.1,0,0,1,.665-1.769,3.366,3.366,0,0,1,2.65-1.382,3.326,3.326,0,0,1,.78.084c0-.047-.026-.069-.046-.1A3.221,3.221,0,0,1,383.9-51.8a3.268,3.268,0,0,1,2.179-2.622A5.263,5.263,0,0,1,386.907-54.622Z" stroke="none"/><path d="M 386.9071350097656 -54.62200164794922 C 386.6285095214844 -54.56284332275391 386.3440551757812 -54.53090286254883 386.0753784179688 -54.426513671875 C 384.8634643554688 -53.95560073852539 384.1203002929688 -53.08816146850586 383.8963623046875 -51.80498123168945 C 383.72998046875 -50.85148239135742 383.9695739746094 -49.98685073852539 384.5539245605469 -49.21686172485352 C 384.5735778808594 -49.1910514831543 384.6023254394531 -49.16935348510742 384.6000366210938 -49.12186050415039 C 384.3419189453125 -49.17558670043945 384.0830078125 -49.21402359008789 383.8197937011719 -49.20600128173828 C 382.7139282226562 -49.17233276367188 381.8416137695312 -48.68303298950195 381.1701354980469 -47.82375335693359 C 380.76611328125 -47.30678176879883 380.5418090820312 -46.71391296386719 380.5048217773438 -46.05447387695312 C 380.5024719238281 -46.01241302490234 380.4897766113281 -45.97096252441406 380.48193359375 -45.92923355102539 C 380.48193359375 -45.91008377075195 380.48193359375 -45.89097213745117 380.48193359375 -45.87185287475586 C 380.4998474121094 -45.70666122436523 380.5097045898438 -45.54011154174805 380.5370178222656 -45.37649154663086 C 380.7479248046875 -44.1151237487793 381.4400024414062 -43.21368408203125 382.6276550292969 -42.75142288208008 C 383.8727111816406 -42.26685333251953 385.0270080566406 -42.49549865722656 386.0548095703125 -43.35125350952148 C 386.0804443359375 -43.37261199951172 386.41796875 -43.4871826171875 386.4427795410156 -43.50192260742188 C 386.4686584472656 -43.51742553710938 386.4871215820312 -42.89756393432617 386.4427795410156 -42.20145416259766 C 386.3983764648438 -41.50493240356445 386.4601440429688 -41.7000617980957 385.9765319824219 -40.9498405456543 C 385.2825927734375 -40.22093200683594 385.4924926757812 -40.56896209716797 385.3750915527344 -40.35567092895508 C 385.2508850097656 -40.13016128540039 385.3617553710938 -39.9345817565918 385.6167297363281 -39.9340934753418 C 386.6680908203125 -39.93207931518555 387.7195129394531 -39.93210983276367 388.77099609375 -39.9340934753418 C 389.0260009765625 -39.9345817565918 389.1367797851562 -40.12994384765625 389.0131225585938 -40.35558319091797 C 388.8479614257812 -40.6569709777832 388.6745910644531 -40.95388412475586 388.5133972167969 -41.25734329223633 C 388.3312072753906 -41.60022354125977 388.2313232421875 -41.91678237915039 388.2313232421875 -41.91678237915039 C 388.2313537597656 -41.91678237915039 388.0618286132812 -43.67134094238281 388.2313232421875 -43.50192260742188 C 389.828857421875 -42.06410217285156 391.7925720214844 -42.49504470825195 392.7076416015625 -43.30330276489258 C 393.8538208007812 -44.31565093994141 394.2055053710938 -45.85822296142578 393.5926818847656 -47.20703125 C 393.0615539550781 -48.37604141235352 391.6038513183594 -49.52145385742188 389.7916870117188 -49.12833404541016 C 389.7810363769531 -49.17912292480469 389.823974609375 -49.20266342163086 389.8471374511719 -49.23322296142578 C 391.3153381347656 -51.16923141479492 390.3345336914062 -53.94149398803711 387.9714050292969 -54.5284423828125 C 387.8010864257812 -54.57075119018555 387.6253356933594 -54.59133148193359 387.4521179199219 -54.62200164794922 L 386.9071350097656 -54.62200164794922 M 386.7496643066406 -56.12200164794922 L 387.5838928222656 -56.12200164794922 L 387.7136535644531 -56.09903335571289 C 387.7593688964844 -56.0909309387207 387.8053588867188 -56.08376312255859 387.851318359375 -56.07650375366211 C 387.9859008789062 -56.05526351928711 388.1534118652344 -56.02881240844727 388.3330383300781 -55.98420333862305 C 389.9349670410156 -55.58631134033203 391.2167358398438 -54.42681121826172 391.76171875 -52.88256072998047 C 392.038330078125 -52.09869766235352 392.104736328125 -51.27301025390625 391.972412109375 -50.47830963134766 C 393.4037170410156 -50.01508712768555 394.4630432128906 -48.91756439208984 394.9583129882812 -47.82753372192383 C 395.3955688476562 -46.86514282226562 395.5042419433594 -45.81715393066406 395.2725524902344 -44.79683303833008 C 395.0440979003906 -43.79076385498047 394.5005187988281 -42.88554382324219 393.7006225585938 -42.17904281616211 C 392.8941040039062 -41.46667098999023 391.7646484375 -41.05810165405273 390.6019287109375 -41.05810165405273 C 390.512451171875 -41.05810165405273 390.4233093261719 -41.06049346923828 390.3346557617188 -41.06525039672852 C 390.6443481445312 -40.49153137207031 390.6405944824219 -39.83052444458008 390.3238830566406 -39.29461288452148 C 390.0061645507812 -38.75704193115234 389.4267272949219 -38.43535232543945 388.7738647460938 -38.4340934753418 C 387.7204284667969 -38.4321174621582 386.6671142578125 -38.43208694458008 385.6138610839844 -38.4340934753418 C 384.9602966308594 -38.43535232543945 384.3805847167969 -38.75760269165039 384.0630798339844 -39.29611206054688 C 383.7584838867188 -39.81270980834961 383.7444458007812 -40.44472885131836 384.0212097167969 -41.00289154052734 C 383.3834533691406 -40.9847526550293 382.7290649414062 -41.10235977172852 382.0836181640625 -41.35355377197266 C 380.4318237304688 -41.9964714050293 379.3571472167969 -43.33731079101562 379.0575561523438 -45.12911224365234 C 379.0298156738281 -45.29533386230469 379.0159606933594 -45.44464111328125 379.0037231445312 -45.57637405395508 C 378.9995727539062 -45.6209831237793 378.9955139160156 -45.66559219360352 378.9906921386719 -45.7100830078125 L 378.98193359375 -45.79073333740234 L 378.98193359375 -46.069091796875 L 379.0077819824219 -46.20654296875 C 379.0096740722656 -46.21648406982422 379.0116271972656 -46.2264289855957 379.0136413574219 -46.23636627197266 C 379.0841674804688 -47.16554641723633 379.4118041992188 -48.00980377197266 379.98828125 -48.74743270874023 C 380.6483459472656 -49.59213638305664 381.4695129394531 -50.17582702636719 382.4064636230469 -50.47505569458008 C 382.3213195800781 -50.99192810058594 382.3246765136719 -51.52414321899414 382.418701171875 -52.06282424926758 C 382.7312622070312 -53.8538818359375 383.807861328125 -55.15469360351562 385.5321044921875 -55.82467269897461 C 385.8593139648438 -55.95180130004883 386.1623229980469 -56.00774383544922 386.4057922363281 -56.05269241333008 C 386.4691772460938 -56.06439208984375 386.5325927734375 -56.07591247558594 386.5956115722656 -56.08929061889648 L 386.7496643066406 -56.12200164794922 Z" stroke="none" fill="#121627"/></g></g></g></svg>