<svg xmlns="http://www.w3.org/2000/svg" width="25.706" height="25.706" viewBox="0 0 25.706 25.706"><g transform="translate(569.294 -677.689)"><g transform="translate(-569.294 677.689)"><circle cx="12.853" cy="12.853" r="12.853" fill="#2b3350" opacity="0.106"/><g transform="translate(6.521 6.517)"><path d="M203.014,301c-.245-.032-.491-.054-.733-.1a6.233,6.233,0,0,1-4.486-3.266,6.083,6.083,0,0,1-.718-3.509,6.211,6.211,0,0,1,.808-2.585.207.207,0,0,1,.108-.086,1.638,1.638,0,0,1,.347-.062l-.412.33a.983.983,0,0,0,.591.249,7.07,7.07,0,0,0,1.369-.174.194.194,0,0,1,.246.107c.165.29.349.569.518.856a.44.44,0,0,1,.059.206c.007.26,0,.519.006.779a.4.4,0,0,0,.068.212c.252.352.513.7.766,1.048a.174.174,0,0,0,.222.08v-.365l.026-.005c.09.188.185.372.268.563a.222.222,0,0,0,.176.146c.274.056.548.115.819.183a.45.45,0,0,1,.2.11c.231.227.432.5.826.5-.083.175-.152.318-.219.462a1.206,1.206,0,0,0-.19.448.957.957,0,0,0,.211.425,5.207,5.207,0,0,1,.508,1.412.247.247,0,0,1-.01.12c-.064.268-.115.541-.2.8a2.268,2.268,0,0,0-.021.869c0,.061.009.121.015.188l-.471.06Z" transform="translate(-197.052 -288.324)" fill="#111527"/><path d="M215.3,293.18c-.032.269-.05.541-.1.807a6.34,6.34,0,0,1-4.654,5.045l-.091.02c.064-.206.064-.41.285-.534.283-.159.547-.353.813-.54a.426.426,0,0,0,.137-.177c.078-.186.138-.379.216-.565a.289.289,0,0,1,.123-.137c.19-.1.388-.182.581-.275a.224.224,0,0,0,.1-.081c.23-.432.456-.867.687-1.308-.034-.023-.063-.044-.093-.063-.12-.072-.237-.15-.363-.212a3.182,3.182,0,0,1-1.142-.941.348.348,0,0,0-.185-.1c-.171-.042-.346-.072-.519-.108-.3-.062-.595-.138-.9-.179a.813.813,0,0,0-.369.075.237.237,0,0,1-.332-.095.621.621,0,0,0-.489-.286l.023-.458a.467.467,0,0,0-.582.262l-.127-.536c.155-.073.3-.146.451-.212a.15.15,0,0,1,.1.009c.117.05.229.118.349.156a1.371,1.371,0,0,0,.313.044.085.085,0,0,0,.063-.056c.026-.33.266-.533.444-.778a2.1,2.1,0,0,1,.94-.748,2.949,2.949,0,0,1,.524-.242,2.1,2.1,0,0,1,.571.059c.105-.2.1-.275-.052-.424-.084-.085-.163-.176-.252-.255a2.145,2.145,0,0,1-.6-.845.142.142,0,0,0-.168-.1.962.962,0,0,1-.528-.12,2.437,2.437,0,0,0-.584-.12l-.122.667c-.213-.04-.418-.076-.622-.121-.026-.006-.057-.058-.06-.09-.01-.111-.046-.247,0-.328.036-.061.186-.064.288-.075a.23.23,0,0,0,.231-.229c.026-.182.08-.361.126-.558.163.067.323.127.476.2.026.012.038.088.03.129a.2.2,0,0,0,.177.273.646.646,0,0,1,.16.066.493.493,0,0,0,.619-.085c-.1-.119-.208-.246-.32-.364a4.444,4.444,0,0,0-.4-.388.353.353,0,0,1-.113-.412c.25.083.514.058.75.25a1.687,1.687,0,0,1,.562.941.5.5,0,0,0,.167.264c.189.161.365.334.554.494a3.23,3.23,0,0,0,.321.214c.09-.143.169-.258.237-.379a.207.207,0,0,1,.185-.116c.279-.019.559-.047.838-.072.021,0,.041,0,.062-.007.19-.04.19-.04.3.129a6.228,6.228,0,0,1,.94,2.922c0,.04.012.08.019.12Z" transform="translate(-202.63 -286.573)" fill="#111527"/><path d="M199.96,287.616a6.276,6.276,0,0,1,7.52-1.693.98.98,0,0,1-.567-.022.539.539,0,0,0-.435.09,2.728,2.728,0,0,0-.5.443.245.245,0,0,1-.143.075c-.315.036-.631.075-.948.09a2.318,2.318,0,0,1-.477-.05.113.113,0,0,0-.139.061c-.066.114-.146.22-.21.336a.186.186,0,0,1-.179.1c-.252.009-.5.041-.754.03a2.178,2.178,0,0,1-.5-.118.277.277,0,0,0-.267.028,1.713,1.713,0,0,1-.9.29,6.388,6.388,0,0,0-1.372.3C200.054,287.592,200.018,287.6,199.96,287.616Zm6.194-1.782c-.135-.078-.251-.148-.37-.212a.108.108,0,0,0-.088,0c-.322.178-.643.36-.977.549.141.112.258.207.436.166a1.736,1.736,0,0,0,.429-.079A5.017,5.017,0,0,0,206.154,285.835Zm-2.947.171-.435.338a1.1,1.1,0,0,1,.137.084.527.527,0,0,0,.569.08c.178-.066.367-.1.558-.154-.057-.1-.109-.184-.154-.271-.032-.064-.069-.081-.137-.051A.48.48,0,0,1,203.207,286.006Z" transform="translate(-198.491 -285.323)" fill="#111527"/></g></g></g></svg>