<svg xmlns="http://www.w3.org/2000/svg" width="25.706" height="25.706" viewBox="0 0 25.706 25.706"><g transform="translate(569.294 -412.592)"><circle cx="12.853" cy="12.853" r="12.853" transform="translate(-569.294 412.592)" fill="#2b3350" opacity="0.106"/><path d="M5,128.37c.057-.31.088-.627.174-.928a4.286,4.286,0,0,1,2.646-2.965,4.181,4.181,0,0,1,4.213.6c.115.085.22.184.332.279.166-.13.322-.264.489-.383a4.291,4.291,0,0,1,5.408.338,4.465,4.465,0,0,1,1.476,3.347,3.653,3.653,0,0,1-.552,1.838,10.9,10.9,0,0,1-1.921,2.411,31.425,31.425,0,0,1-4.684,3.735.334.334,0,0,1-.412.006,30.124,30.124,0,0,1-5.037-4.093,9.359,9.359,0,0,1-1.724-2.342,3.788,3.788,0,0,1-.381-1.2A.264.264,0,0,0,5,128.946Zm4.438-3.628-.008-.04a9.626,9.626,0,0,0-1.111.208,3.744,3.744,0,0,0-2.46,2.285,3.313,3.313,0,0,0,.284,3.173A11.27,11.27,0,0,0,7.6,132.2a29.457,29.457,0,0,0,4.68,3.827.141.141,0,0,0,.188,0,29.5,29.5,0,0,0,4.67-3.817,9.816,9.816,0,0,0,1.5-1.908,3.259,3.259,0,0,0,.528-1.607,3.856,3.856,0,0,0-1.125-2.808,3.724,3.724,0,0,0-5.32-.052c-.309.3-.384.3-.694,0A3.728,3.728,0,0,0,9.438,124.742Z" transform="translate(-568.808 295.928)" stroke="#121627" stroke-width="1"/></g></svg>