<svg xmlns="http://www.w3.org/2000/svg" width="25.706" height="25.706" viewBox="0 0 25.706 25.706"><g transform="translate(502.294 -639.129)"><path d="M12.853,0A12.853,12.853,0,1,1,0,12.853,12.853,12.853,0,0,1,12.853,0Z" transform="translate(-502.294 639.129)" fill="#ffd800"/><path d="M1568.965,1100.627l-.828-.118a4.387,4.387,0,0,0-4.327-3.7h-.707a4.387,4.387,0,0,0-4.327,3.7l-.829.118h0a.965.965,0,0,0-.824.951v2.21a.965.965,0,0,0,.824.951l1.554.222v-3.774a3.606,3.606,0,0,1,3.6-3.6h.707a3.606,3.606,0,0,1,3.6,3.6v3.326a3.274,3.274,0,0,1-2.078,3.044,1.153,1.153,0,0,0,.008-.134,1.138,1.138,0,0,0-1.137-1.137h-1.5a1.137,1.137,0,0,0,0,2.274h1.5l.071,0a4.053,4.053,0,0,0,3.9-3.705l.79-.113h0a.965.965,0,0,0,.824-.95v-2.21A.965.965,0,0,0,1568.965,1100.627Zm-11.065,3.16v-2.21a.184.184,0,0,1,.157-.181l.666-.1v2.762l-.666-.095A.184.184,0,0,1,1557.9,1103.787Zm4.808,3.994a.36.36,0,0,1,0-.719h1.5a.359.359,0,0,1,.042.717l-.1,0Zm6.3-3.994a.184.184,0,0,1-.157.181l-.666.1V1101.3l.666.1a.184.184,0,0,1,.157.181Z" transform="translate(-2052.896 -450.699)" stroke="#111527" stroke-width="0.5"/></g></svg>