<svg xmlns="http://www.w3.org/2000/svg" width="25.706" height="25.706" viewBox="0 0 25.706 25.706"><g transform="translate(502.294 -374.95)"><circle cx="12.853" cy="12.853" r="12.853" transform="translate(-502.294 374.95)" fill="#ffd800"/><path d="M2.6,3.614c-.1-.122-.18-.217-.25-.321A2.2,2.2,0,0,1,2.164.963,1.641,1.641,0,0,1,3.606.017,2.442,2.442,0,0,1,6.072,1.385a.523.523,0,0,0,.032.049s.008,0,.007,0a7.222,7.222,0,0,1,.459-.6A2.364,2.364,0,0,1,9.079.105a1.792,1.792,0,0,1,1.246,1.689A2.3,2.3,0,0,1,9.747,3.5c-.022.026-.043.054-.063.081,0,0,0,.009.009.031.227,0,.46-.006.693,0a3.4,3.4,0,0,1,.627.052,1.555,1.555,0,0,1,1.221,1.519q.009,3.617,0,7.235a1.568,1.568,0,0,1-1.609,1.567c-1.289,0-2.578,0-3.867,0q-2.566,0-5.132,0A1.567,1.567,0,0,1,.047,12.77,1.783,1.783,0,0,1,0,12.362q0-3.551,0-7.1A1.592,1.592,0,0,1,1.643,3.614c.308,0,.617,0,.954,0M6.61,13.048h3.975a.647.647,0,0,0,.709-.714q0-3.522,0-7.044a.661.661,0,0,0-.729-.73H6.61Zm-.983,0V4.56H1.693a.667.667,0,0,0-.751.752q0,3.5,0,7a.653.653,0,0,0,.731.736H5.627m.958-9.419c.282,0,.537.01.79,0a2.357,2.357,0,0,0,1.339-.416,1.469,1.469,0,0,0,.668-1.428A.87.87,0,0,0,8.735,1a1.46,1.46,0,0,0-1.521.5,3.359,3.359,0,0,0-.629,2.138m-.951-.016a4.475,4.475,0,0,0-.3-1.606A1.559,1.559,0,0,0,3.658.956a.784.784,0,0,0-.7.467,1.181,1.181,0,0,0-.087.819,1.688,1.688,0,0,0,1.083,1.19,4.215,4.215,0,0,0,1.676.181" transform="translate(-495.56 380.348)" fill="#121627" stroke="#121627" stroke-width="0.5"/></g></svg>