<svg width="29" height="29" viewBox="0 0 29 29" fill="none" xmlns="http://www.w3.org/2000/svg">
<path d="M5.66498 8.072C5.47798 7.833 5.31298 7.647 5.17498 7.443C4.69379 6.79314 4.40498 6.02111 4.3415 5.215C4.27803 4.40888 4.44244 3.60116 4.81598 2.884C5.06849 2.34345 5.46651 1.88389 5.96546 1.55679C6.46441 1.22969 7.04458 1.04797 7.64098 1.032C8.6237 0.924558 9.61557 1.12439 10.48 1.60398C11.3445 2.08358 12.039 2.81935 12.468 3.71C12.4867 3.74449 12.5074 3.77788 12.53 3.81C12.53 3.816 12.546 3.817 12.544 3.816C12.823 3.40615 13.1234 3.01127 13.444 2.633C14.0316 1.9387 14.8109 1.43297 15.6843 1.17899C16.5577 0.925017 17.4867 0.934063 18.355 1.205C19.0575 1.4299 19.6713 1.87048 20.1092 2.46415C20.547 3.05782 20.7866 3.77437 20.794 4.512C20.8402 5.11743 20.7637 5.72597 20.569 6.30111C20.3743 6.87625 20.0655 7.40614 19.661 7.859C19.617 7.909 19.578 7.959 19.538 8.017C19.538 8.017 19.538 8.034 19.555 8.078C20 8.078 20.455 8.066 20.911 8.078C21.3225 8.0733 21.7336 8.10678 22.139 8.178C22.8161 8.3272 23.4221 8.70313 23.8565 9.24358C24.2909 9.78402 24.5278 10.4566 24.528 11.15C24.5393 15.8707 24.5393 20.5913 24.528 25.312C24.5284 25.7218 24.4467 26.1275 24.2878 26.5053C24.1289 26.883 23.896 27.2251 23.6028 27.5114C23.3096 27.7977 22.9621 28.0224 22.5806 28.1723C22.1992 28.3222 21.7917 28.3941 21.382 28.384C18.859 28.393 16.335 28.384 13.812 28.384C10.4633 28.384 7.11498 28.384 3.76698 28.384C3.05483 28.4074 2.35675 28.1821 1.79255 27.7469C1.22835 27.3117 0.833224 26.6937 0.674981 25.999C0.613222 25.7368 0.582014 25.4684 0.581981 25.199C0.581981 20.5637 0.581981 15.9303 0.581981 11.299C0.56682 10.8721 0.639558 10.4467 0.795681 10.0491C0.951803 9.6515 1.18798 9.29024 1.48955 8.98773C1.79112 8.68523 2.15164 8.44793 2.54875 8.29058C2.94585 8.13322 3.37106 8.05916 3.79798 8.073C4.39798 8.073 5.00598 8.072 5.66498 8.072ZM13.521 26.541H13.789C16.2936 26.541 18.798 26.541 21.302 26.541C21.4901 26.5604 21.6801 26.5374 21.8582 26.4737C22.0362 26.41 22.1977 26.3073 22.3309 26.173C22.464 26.0387 22.5654 25.8763 22.6275 25.6977C22.6896 25.5192 22.711 25.3289 22.69 25.141C22.69 20.545 22.69 15.9487 22.69 11.352C22.7115 11.1593 22.6894 10.9643 22.6254 10.7813C22.5614 10.5983 22.4571 10.432 22.3202 10.2947C22.1834 10.1574 22.0174 10.0526 21.8345 9.98813C21.6517 9.92362 21.4567 9.90102 21.264 9.922C18.7973 9.922 16.3306 9.922 13.864 9.922H13.518L13.521 26.541ZM11.596 26.541V9.925H3.89598C3.69607 9.89737 3.49247 9.91648 3.30119 9.98084C3.10992 10.0452 2.93617 10.153 2.79361 10.2959C2.65106 10.4387 2.54357 10.6127 2.47961 10.8041C2.41565 10.9955 2.39695 11.1991 2.42498 11.399C2.42498 15.9663 2.42498 20.533 2.42498 25.099C2.39832 25.2935 2.41684 25.4916 2.4791 25.6778C2.54136 25.864 2.6457 26.0334 2.784 26.1728C2.92231 26.3121 3.09087 26.4178 3.27661 26.4814C3.46234 26.5451 3.66025 26.5652 3.85498 26.54L11.596 26.541ZM13.472 8.099C14.025 8.099 14.523 8.118 15.019 8.099C15.9554 8.09977 16.87 7.81551 17.641 7.284C18.102 6.99054 18.4699 6.57179 18.7016 6.07678C18.9332 5.58178 19.0191 5.03101 18.949 4.489C18.9273 4.13122 18.7931 3.78944 18.5656 3.51251C18.338 3.23557 18.0288 3.03764 17.682 2.947C17.1451 2.80147 16.5774 2.81583 16.0486 2.98832C15.5198 3.16081 15.0528 3.48391 14.705 3.918C13.8305 5.13092 13.3956 6.60567 13.472 8.099ZM11.61 8.068C11.6065 6.99202 11.4048 5.92589 11.015 4.923C10.79 4.25594 10.3414 3.68715 9.74509 3.313C9.14879 2.93885 8.44147 2.78234 7.74298 2.87C7.4529 2.87802 7.17105 2.96815 6.93014 3.12993C6.68923 3.29172 6.49916 3.51852 6.38198 3.784C6.13524 4.27965 6.07456 4.84739 6.21098 5.384C6.34221 5.91842 6.605 6.41154 6.97544 6.81848C7.34588 7.22542 7.81221 7.53327 8.33198 7.714C9.39058 8.05207 10.5066 8.17282 11.613 8.069" fill="#F4F8FC"/>
<path d="M11.61 8.068C11.6065 6.99202 11.4048 5.92589 11.015 4.923C10.79 4.25594 10.3414 3.68715 9.74509 3.313C9.14879 2.93885 8.44147 2.78234 7.74298 2.87C7.4529 2.87802 7.17105 2.96815 6.93014 3.12993C6.68923 3.29172 6.49916 3.51852 6.38198 3.784C6.13524 4.27965 6.07456 4.84739 6.21098 5.384C6.34221 5.91842 6.605 6.41154 6.97544 6.81848C7.34588 7.22542 7.81221 7.53327 8.33198 7.714C9.39058 8.05207 10.5066 8.17282 11.613 8.069M5.66498 8.072C5.47798 7.833 5.31298 7.647 5.17498 7.443C4.69379 6.79314 4.40498 6.02111 4.3415 5.215C4.27803 4.40888 4.44244 3.60116 4.81598 2.884C5.06849 2.34345 5.46651 1.88389 5.96546 1.55679C6.46441 1.22969 7.04458 1.04797 7.64098 1.032C8.6237 0.924558 9.61557 1.12439 10.48 1.60398C11.3445 2.08358 12.039 2.81935 12.468 3.71C12.4867 3.74449 12.5074 3.77788 12.53 3.81C12.53 3.816 12.546 3.817 12.544 3.816C12.823 3.40615 13.1234 3.01127 13.444 2.633C14.0316 1.9387 14.8109 1.43297 15.6843 1.17899C16.5577 0.925017 17.4867 0.934063 18.355 1.205C19.0575 1.4299 19.6713 1.87048 20.1092 2.46415C20.547 3.05782 20.7866 3.77437 20.794 4.512C20.8402 5.11743 20.7637 5.72597 20.569 6.30111C20.3743 6.87625 20.0655 7.40614 19.661 7.859C19.617 7.909 19.578 7.959 19.538 8.017C19.538 8.017 19.538 8.034 19.555 8.078C20 8.078 20.455 8.066 20.911 8.078C21.3225 8.0733 21.7336 8.10678 22.139 8.178C22.8161 8.3272 23.4221 8.70313 23.8565 9.24358C24.2909 9.78402 24.5278 10.4566 24.528 11.15C24.5393 15.8707 24.5393 20.5913 24.528 25.312C24.5284 25.7218 24.4467 26.1275 24.2878 26.5053C24.1289 26.883 23.896 27.2251 23.6028 27.5114C23.3096 27.7977 22.9621 28.0224 22.5806 28.1723C22.1992 28.3222 21.7917 28.3941 21.382 28.384C18.859 28.393 16.335 28.384 13.812 28.384C10.4633 28.384 7.11498 28.384 3.76698 28.384C3.05483 28.4074 2.35675 28.1821 1.79255 27.7469C1.22835 27.3117 0.833224 26.6937 0.674981 25.999C0.613222 25.7368 0.582014 25.4684 0.581981 25.199C0.581981 20.5637 0.581981 15.9303 0.581981 11.299C0.56682 10.8721 0.639558 10.4467 0.795681 10.0491C0.951803 9.6515 1.18798 9.29024 1.48955 8.98773C1.79112 8.68523 2.15164 8.44793 2.54875 8.29058C2.94585 8.13322 3.37106 8.05916 3.79798 8.073C4.39798 8.073 5.00598 8.072 5.66498 8.072ZM13.521 26.541H13.789C16.2936 26.541 18.798 26.541 21.302 26.541C21.4901 26.5604 21.6801 26.5374 21.8582 26.4737C22.0362 26.41 22.1977 26.3073 22.3309 26.173C22.464 26.0387 22.5654 25.8763 22.6275 25.6977C22.6896 25.5192 22.711 25.3289 22.69 25.141C22.69 20.545 22.69 15.9487 22.69 11.352C22.7115 11.1593 22.6894 10.9643 22.6254 10.7813C22.5614 10.5983 22.4571 10.432 22.3202 10.2947C22.1834 10.1574 22.0174 10.0526 21.8345 9.98813C21.6517 9.92363 21.4567 9.90102 21.264 9.922C18.7973 9.922 16.3306 9.922 13.864 9.922H13.518L13.521 26.541ZM11.596 26.541V9.925H3.89598C3.69607 9.89737 3.49247 9.91648 3.30119 9.98084C3.10992 10.0452 2.93617 10.153 2.79361 10.2959C2.65106 10.4387 2.54357 10.6127 2.47961 10.8041C2.41565 10.9955 2.39695 11.1991 2.42498 11.399C2.42498 15.9663 2.42498 20.533 2.42498 25.099C2.39832 25.2935 2.41684 25.4916 2.4791 25.6778C2.54136 25.864 2.6457 26.0334 2.784 26.1728C2.92231 26.3121 3.09087 26.4178 3.27661 26.4814C3.46234 26.5451 3.66025 26.5652 3.85498 26.54L11.596 26.541ZM13.472 8.099C14.025 8.099 14.523 8.118 15.019 8.099C15.9554 8.09977 16.87 7.81551 17.641 7.284C18.102 6.99054 18.4699 6.57179 18.7016 6.07678C18.9332 5.58178 19.0191 5.03101 18.949 4.489C18.9273 4.13122 18.7931 3.78944 18.5656 3.51251C18.338 3.23557 18.0288 3.03764 17.682 2.947C17.1451 2.80147 16.5774 2.81583 16.0486 2.98832C15.5198 3.16081 15.0528 3.48391 14.705 3.918C13.8305 5.13092 13.3956 6.60567 13.472 8.099Z" stroke="#F4F8FC"/>
<path d="M24.5 17.998C26.9853 17.998 29 15.9833 29 13.498C29 11.0127 26.9853 8.998 24.5 8.998C22.0147 8.998 20 11.0127 20 13.498C20 15.9833 22.0147 17.998 24.5 17.998Z" fill="#121627"/>
</svg>
