<svg xmlns="http://www.w3.org/2000/svg" width="25.589" height="25.589" viewBox="0 0 25.589 25.589"><g transform="translate(502.411 -295.878)"><circle cx="12.795" cy="12.795" r="12.795" transform="translate(-502.411 295.878)" fill="#ffd800"/><path d="M-1362.458,227.921h-6.912a.792.792,0,0,1-.791-.791,4.252,4.252,0,0,1,4.247-4.247,4.252,4.252,0,0,1,4.247,4.247.792.792,0,0,1-.791.791Zm-5.975-8.434a2.522,2.522,0,0,1,2.519-2.519,2.522,2.522,0,0,1,2.519,2.519,2.522,2.522,0,0,1-2.519,2.519,2.522,2.522,0,0,1-2.519-2.519Zm4.347,2.857a3.4,3.4,0,0,0,1.568-2.857,3.4,3.4,0,0,0-3.4-3.4,3.4,3.4,0,0,0-3.4,3.4,3.394,3.394,0,0,0,1.568,2.857,5.132,5.132,0,0,0-3.3,4.785,1.67,1.67,0,0,0,1.668,1.668h6.912a1.67,1.67,0,0,0,1.667-1.668,5.131,5.131,0,0,0-3.3-4.785Z" transform="translate(876.474 86.174)" fill="#121627" stroke="#121627" stroke-width="1" fill-rule="evenodd"/></g></svg>