<svg width="19" height="19" viewBox="0 0 19 19" fill="none" xmlns="http://www.w3.org/2000/svg">
<mask id="mask0_1_2232" style="mask-type:luminance" maskUnits="userSpaceOnUse" x="3" y="3" width="14" height="13">
<path d="M16.304 3.429H3.70898V15.962H16.304V3.429Z" fill="white"/>
</mask>
<g mask="url(#mask0_1_2232)">
<path d="M16.3011 6.758V6.91C16.3011 8.85867 16.3011 10.8077 16.3011 12.757C16.3056 12.7994 16.2958 12.842 16.2733 12.8782C16.2509 12.9144 16.217 12.9421 16.1771 12.957C14.2338 13.9297 12.2918 14.9047 10.3511 15.882C10.2981 15.909 10.2431 15.932 10.1731 15.964V15.81C10.1731 13.866 10.1731 11.9217 10.1731 9.977C10.1679 9.93531 10.1766 9.89307 10.198 9.85688C10.2193 9.82069 10.2521 9.7926 10.2911 9.777C12.2518 8.79633 14.2108 7.81333 16.1681 6.828C16.2051 6.81 16.2421 6.79301 16.3011 6.76501" fill="white"/>
<path d="M3.71698 6.757L3.96898 6.882C4.59498 7.197 5.22098 7.514 5.84898 7.824C5.88537 7.83685 5.91633 7.86164 5.93684 7.89432C5.95736 7.927 5.96622 7.96565 5.96198 8.004C5.96198 8.672 5.96198 9.341 5.96198 10.009V10.179C6.22398 10.179 6.47598 10.179 6.72698 10.179C6.77087 10.1769 6.81466 10.1848 6.85504 10.2021C6.89541 10.2194 6.9313 10.2457 6.95998 10.279C7.21498 10.539 7.47698 10.793 7.75398 11.066V8.796C7.81398 8.822 7.85398 8.837 7.88898 8.855L9.73098 9.779C9.79498 9.811 9.84298 9.838 9.84298 9.931C9.83898 11.9177 9.83898 13.9043 9.84298 15.891C9.84298 15.909 9.84298 15.928 9.83698 15.964C9.78498 15.939 9.73698 15.919 9.69498 15.897C7.73632 14.9117 5.77965 13.9283 3.82498 12.947C3.75198 12.91 3.70898 12.878 3.70898 12.784C3.70898 10.802 3.70898 8.82 3.70898 6.838C3.70898 6.819 3.70898 6.801 3.71398 6.757" fill="white"/>
<path d="M16.105 6.472L14.87 7.095C13.2953 7.88567 11.721 8.67733 10.147 9.47C10.1042 9.49595 10.0551 9.50967 10.005 9.50967C9.95493 9.50967 9.90582 9.49595 9.863 9.47C9.273 9.17 8.678 8.87 8.086 8.57C8.045 8.549 8.005 8.527 7.948 8.496L9.11 7.876C10.6567 7.05067 12.2027 6.22467 13.748 5.398C13.7827 5.37659 13.8227 5.36525 13.8635 5.36525C13.9043 5.36525 13.9443 5.37659 13.979 5.398C14.65 5.739 15.323 6.075 15.995 6.413C16.028 6.429 16.059 6.45 16.105 6.477" fill="white"/>
<path d="M3.90308 6.47L5.02408 5.904C6.64008 5.09267 8.25541 4.28034 9.87008 3.467C9.91263 3.44134 9.96138 3.42777 10.0111 3.42777C10.0608 3.42777 10.1095 3.44134 10.1521 3.467C10.7381 3.767 11.3281 4.06 11.9171 4.356C11.9581 4.376 11.9971 4.4 12.0561 4.433C11.9611 4.485 11.8821 4.533 11.8011 4.574C9.95708 5.562 8.10974 6.54734 6.25908 7.53C6.23063 7.54609 6.19926 7.55632 6.1668 7.5601C6.13434 7.56388 6.10145 7.56112 6.07008 7.552C5.35408 7.201 4.64108 6.84 3.90308 6.47Z" fill="white"/>
</g>
</svg>
