<svg xmlns="http://www.w3.org/2000/svg" width="18" height="18" viewBox="0 0 18 18"><g transform="translate(-18.66 -16.5)"><circle cx="9" cy="9" r="9" transform="translate(18.66 16.5)" fill="#fff" opacity="0"/><g transform="translate(-1041.036 -189.811)"><path d="M1064.321,209.913a.515.515,0,0,1,.516.515v.454a4.948,4.948,0,0,1,3.015-.966,8.238,8.238,0,0,1,3.083.674,2.43,2.43,0,0,0,.915.188,2.22,2.22,0,0,0,1.4-.513l.014-.012,0,0a.52.52,0,0,1,.661.01c.006.007.013.012.02.021l.031.031,1.015,1.078.006.008a.105.105,0,0,1,.012.013.511.511,0,0,1-.009.689l-.011.014-.012.012-.005,0a22.037,22.037,0,0,0-2.505,3.051,13.809,13.809,0,0,0-1.925,7.051c0,.182.011.557.011.563a.515.515,0,0,1-.514.515h-4.121a.517.517,0,0,1-.514-.466c0-.006,0-.015,0-.022V222.8c-.01-.189-.015-.38-.015-.563a10.3,10.3,0,0,1,4.773-8.7,1.421,1.421,0,0,1-.149.007c-.722,0-1.888-.458-2.944-.458a2.028,2.028,0,0,0-2.129,1.606c0,.008,0,.019-.008.028v0a.517.517,0,0,1-.488.348h-1.663a.516.516,0,0,1-.516-.515v-4.123a.515.515,0,0,1,.516-.515h1.546" transform="translate(0 0)" fill="#fff"/></g></g></svg>