<svg xmlns="http://www.w3.org/2000/svg" width="18" height="18" viewBox="0 0 18 18"><g transform="translate(-18.66 -16.5)"><circle cx="9" cy="9" r="9" transform="translate(18.66 16.5)" fill="#fff" opacity="0"/><g transform="translate(3.131 -163.172)"><path d="M18,185.52a2.192,2.192,0,0,1,.153-.322.837.837,0,0,1,.741-.364c.431,0,.862,0,1.294,0h6.107a.843.843,0,0,1,.9.647,1.139,1.139,0,0,1,.023.261q0,3.277,0,6.554a.838.838,0,0,1-.91.908q-3.693,0-7.387,0a.886.886,0,0,1-.921-.686Zm2.3.994a.628.628,0,0,0-.628.626.636.636,0,0,0,.631.627.628.628,0,0,0,.624-.63A.618.618,0,0,0,20.3,186.514Z" transform="translate(0 0)" fill="#fff"/><path d="M293.141,213.914c-.166.32-.339.383-.68.247q-1.7-.677-3.39-1.353a.163.163,0,0,1-.125-.179q.006-1.743,0-3.486a.163.163,0,0,1,.125-.179q1.7-.673,3.391-1.353c.341-.136.514-.073.68.247Z" transform="translate(-260.891 -21.865)" fill="#fff"/></g><g transform="translate(1 1)"><circle cx="1.5" cy="1.5" r="1.5" transform="translate(21.66 17.5)" fill="#fff"/><circle cx="1" cy="1" r="1" transform="translate(24.66 18.5)" fill="#fff"/></g></g></svg>