<svg xmlns="http://www.w3.org/2000/svg" width="18" height="18" viewBox="0 0 18 18"><g transform="translate(-18.66 -16.5)"><circle cx="9" cy="9" r="9" transform="translate(18.66 16.5)" fill="#fff" opacity="0"/><path d="M744.178,438.565a.184.184,0,0,0-.167-.18l-3.211-.307a.185.185,0,0,0-.154.06l-1.847,2.034-2.111-2.1-3.406.213a.185.185,0,0,0-.168.14l-.736,2.945a.178.178,0,0,0-.006.045v.145a.184.184,0,0,0,.074.148l.483.363a.184.184,0,0,1,.074.15l-.1,7.105a.184.184,0,0,0,.173.187l3.567.212a.184.184,0,0,0,.177-.1l.021-.044a.184.184,0,0,0,.019-.076l.122-5.024a.185.185,0,0,1,.312-.129l1.367,1.308a.185.185,0,0,0,.263-.008l1.253-1.346a.184.184,0,0,1,.32.121l.13,4.927a.185.185,0,0,0,.2.179l3.395-.2a.185.185,0,0,0,.174-.188Z" transform="translate(-710.723 -418.396)" fill="#fff"/></g></svg>