<svg xmlns="http://www.w3.org/2000/svg" xmlns:xlink="http://www.w3.org/1999/xlink" width="18" height="18" viewBox="0 0 18 18"><defs><clipPath id="a"><rect width="12.215" height="16.805" fill="#fff"/></clipPath></defs><g transform="translate(-18.66 -16.5)"><circle cx="9" cy="9" r="9" transform="translate(18.66 16.5)" fill="#fff" opacity="0"/><g transform="translate(21.554 17.028)"><g clip-path="url(#a)"><path d="M1.851,4.521a6.686,6.686,0,0,1,.9,2.036A11.219,11.219,0,0,0,4.956,0,8.388,8.388,0,0,1,7.666,2.466,8.564,8.564,0,0,1,9.088,5.848a2.655,2.655,0,0,0,.534-1.275c.059-.442.067-.891.1-1.369.189.242.383.468.553.711a10.446,10.446,0,0,1,1.853,4.544,7.557,7.557,0,0,1-3.945,7.975,8.145,8.145,0,0,1-.748.36,6.547,6.547,0,0,0,.429-5.788A5.962,5.962,0,0,0,6.226,8.7a4.931,4.931,0,0,1-.526,4.13c-.1-.436-.178-.855-.284-1.267a3.1,3.1,0,0,0-.579-1.189c-.014.266-.02.484-.038.7a5.22,5.22,0,0,1-.447,1.707,4.275,4.275,0,0,0,.2,3.9c.017.034.032.069.062.133a7.839,7.839,0,0,1-2.206-1.1A5.989,5.989,0,0,1,.529,8.416c.117-.271.242-.539.377-.8A9.678,9.678,0,0,0,1.8,4.784c.013-.076.031-.151.055-.263" transform="translate(0)" fill="#fff"/></g></g></g></svg>