<svg xmlns="http://www.w3.org/2000/svg" width="18" height="18" viewBox="0 0 18 18"><g transform="translate(-18.66 -16.5)"><circle cx="9" cy="9" r="9" transform="translate(18.66 16.5)" fill="#fff" opacity="0.005"/><path d="M-18.8,41.276h1.51q-.352.355-.7.711a5.461,5.461,0,0,0-1.648,3.988q0,1.088,0,2.176v.157c.032.008.05.015.068.018a3.9,3.9,0,0,1,3.4,3.492A3.948,3.948,0,0,1-18.757,55.9a9.728,9.728,0,0,1-1,.237h-.639a.718.718,0,0,0-.1-.024,3.944,3.944,0,0,1-3.481-3.532A3.881,3.881,0,0,1-21.318,48.5c.26-.084.53-.137.81-.208v-.146c0-.774-.008-1.548,0-2.322a6.266,6.266,0,0,1,1.079-3.465c.024-.036.047-.074.08-.124A6.528,6.528,0,0,0-24.827,48.3a4.037,4.037,0,0,1,1.39.467,4.859,4.859,0,0,0,0,6.87,3.765,3.765,0,0,1-.953.38c-.2.048-.395.08-.593.119h-.639a.717.717,0,0,0-.1-.024,3.957,3.957,0,0,1-3.5-3.72,3.905,3.905,0,0,1,3.389-4.064c.093-.012.117-.048.122-.137a7.029,7.029,0,0,1,.394-1.954c.12-.334.265-.659.4-.987,0,0-.012-.006-.019,0q-.054.02-.107.043a3.77,3.77,0,0,1-1.373.331,4.707,4.707,0,0,1-3.679-1.749c.286-.257.553-.525.848-.755a4.246,4.246,0,0,1,2.557-.971,4.206,4.206,0,0,1,2.614.889c.174.127.337.27.5.4a.232.232,0,0,0,.028-.019l.084-.08a7.3,7.3,0,0,1,3.874-1.958C-19.321,41.342-19.058,41.312-18.8,41.276Zm-8.672,10.905h.86a1.326,1.326,0,0,1,.392-.917,1.348,1.348,0,0,1,.908-.384v-.856A2.156,2.156,0,0,0-27.467,52.181Zm6.076,0a1.342,1.342,0,0,1,1.308-1.311v-.853a2.156,2.156,0,0,0-2.154,2.164Z" transform="translate(49.926 -23.012)" fill="#fff"/></g></svg>