<svg xmlns="http://www.w3.org/2000/svg" width="18" height="18" viewBox="0 0 18 18"><g transform="translate(-18.66 -16.5)"><circle cx="9" cy="9" r="9" transform="translate(18.66 16.5)" fill="#fff" opacity="0"/><g transform="translate(3.129 -87.529)"><path d="M21.591,172.838h-.362c-.011-.008-.021-.02-.033-.023a1.125,1.125,0,0,1-.88-.88q-.977-3.654-1.959-7.307c-.116-.431-.238-.861-.357-1.291v-.361c.006-.007.016-.012.018-.02a1.153,1.153,0,0,1,.924-.9c1.7-.446,3.39-.9,5.084-1.358a1.108,1.108,0,0,1,1.444.824q1.138,4.224,2.27,8.449a1.107,1.107,0,0,1-.829,1.441c-1.332.36-2.665.713-4,1.07C22.472,172.6,22.031,172.718,21.591,172.838Zm.811-8.416a.311.311,0,0,0-.332.216q-.4,1.175-.794,2.351a.292.292,0,0,0,.09.338q.934.822,1.87,1.641a.29.29,0,0,0,.49-.133c.268-.782.53-1.567.795-2.35a.292.292,0,0,0-.09-.338q-.934-.822-1.87-1.64A.661.661,0,0,0,22.4,164.422Z" transform="translate(0 -52.696)" fill="#fff"/><path d="M204.494,108.14c-.065.344-.133.688-.194,1.033q-.453,2.555-.9,5.109-.228,1.291-.458,2.582a1.1,1.1,0,0,1-1.258.943c-.266-.031-.529-.089-.77-.13-.235-1.215-.614-2.376-.91-3.558-.035-.139-.123-.3-.086-.411s.2-.171.314-.253a5.307,5.307,0,0,0,1.384-1.41,2.324,2.324,0,0,0,.355-.9,1,1,0,0,0-1.687-.868,1.1,1.1,0,0,0-.081.1c-.36-.634-.614-.749-1.373-.629-.1-.368-.2-.737-.3-1.106a1.942,1.942,0,0,0-1.487-1.49c-.053-.013-.108-.022-.161-.033a1.131,1.131,0,0,1,1.257-1.193q2.719.463,5.434.956a1.066,1.066,0,0,1,.9.873.256.256,0,0,0,.023.049Z" transform="translate(-172.243 0)" fill="#fff"/></g></g></svg>